<svg xmlns="http://www.w3.org/2000/svg" width="10493" height="4117" viewBox="0 0 10493 4117"><g transform="translate(-3814 -7064)"><path d="M5114,10973c4-87,17-185,17-185s-21-48-34-82c-14-35,0-28,4-40,0,0,5-42-21-82-26-39-87-168-91-168-5,0,21-35,21-35l-52-117s-299-224-425-340c-125-117-360-509-381-513-22-5-65,9-65,9s-14-39-31-96c-9-27-47-121-84-211-35-87-67-173-67-198,0-52,0-125,12-178,14-51,87-129,82-129-4,0-17-26-17-26s-56,37-125-19c-70-56-17-216,107-518,126-302,179-360,205-381,25-22,39-31,42-31,35-1,99-3,130-4l17-21,122-5s79-4,47-203c0,0-26-65-26-78,0-12,17-30,21-34,42-42,42-34,47-155l57-43,34-26H4075c-144,0-261,116-261,258v3598c0,143,117,260,261,260H5159s-52-66-49-207Z" fill="#039"/><path d="M4311,10960H4162l-90-409v409h-97v-522h173l64,339,1-339h98Z" fill="#fff"/><path d="M4642,10584c0,50-14,86-94,98v2c65,5,94,30,94,113v46c0,89-50,117-147,117H4349v-522h146c77,0,147,26,147,106Z" fill="#fff"/><path d="M4859,10960l-14-142h-60l-19,142H4655l94-522h165l75,522Z" fill="#fff"/><path d="M4488,10513h-15v143h15c20,0,29-9,29-34v-76c0-25-9-34-29-34Z" fill="#039"/><path d="M4488,10721h-15v165h15c20,0,29-4,29-25v-116c0-21-9-25-29-25Z" fill="#039"/><path d="M4797,10744h40l-20-215Z" fill="#039"/><path d="M5248,9460c-175,0-316-140-316-314,0-134,86-250,207-294a351.836,351.836,0,0,1,20-31s-17-42-56-103c-40-61-96-207-114-258-16-52-47-277-56-281-9-5-12,0-51,17-40,17-74,82-87,112-12,30-82,216-86,216-5,0,18,21,18,21s42,26,56,43c12,17,117,396,117,396l-26,43s6,36,16,86c11,52,26,121,44,181,35,121,74,311,74,311s52,87,96,178c42,89,95,422,95,426,0,5,74,122,82,169,9,47-21,155-21,155s4,82,9,99c4,16,9,42,21,60,12,17,12,56,12,73s70,242,70,267c0,26-47,99-65,113-4,2-32,32-35,35,140-5,252-119,252-260V9297a314.69,314.69,0,0,1-276,162Z" fill="#fa002b"/><path d="M5263,7065H4861c9,4,96,62,112,82,16,21,12,52,4,91-9,39-26,86-26,86s-12,31-9,35c5,5,9,22,9,22s-51,94-56,98c-4,5-70,122-91,130-9,3-17,27-9,34,12,9,65,48,65,48l26,4,65,43s5,21,35,39c30,17,95,77,135,129,39,52,47,169,51,258,5,91,40,286,47,298,9,12,70,164,82,203,14,39,22,125,22,125l60,73c59,27,107,73,140,129V7322c0-143-117-258-261-258Z" fill="#fa002b"/><path d="M8958,11181H7785L7076,7957v3224H6308V7066H7677l503,2674,9-2674h769Z" fill="#039"/><path d="M11572,8212c0,392-108,676-739,774v20c512,39,739,235,739,891v363c0,705-394,921-1163,921H9256V7066h1153c611,0,1163,206,1163,833Z" fill="#039"/><path d="M13282,11181l-108-1117h-473l-148,1117h-877l739-4115h1300l592,4115Z" fill="#039"/><path d="M10359,7656h-118V8783h118c158,0,227-69,227-265V7920c0-196-69-265-227-265Z" fill="#fff"/><path d="M10359,9293h-118v1303h118c158,0,227-29,227-196V9489C10586,9322,10517,9293,10359,9293Z" fill="#fff"/><path d="M12794,9477h315l-157-1695Z" fill="#fff"/></g></svg>